<svg width="145" height="32" viewBox="0 0 145 32" fill="none" xmlns="http://www.w3.org/2000/svg">
<path d="M18.4219 10.8828C17.237 10.8177 16.1888 10.9414 15.2773 11.2539C14.0143 11.7096 13.0964 12.4388 12.5234 13.4414C11.9505 14.444 11.7292 15.4661 11.8594 16.5078C11.9896 17.5365 12.4714 18.4609 13.3047 19.2812C14.138 20.0885 15.3359 20.5312 16.8984 20.6094C18.0312 20.6224 18.6628 20.2643 18.793 19.5352C18.9232 18.793 19.0404 18.0508 19.1445 17.3086C19.0924 16.8138 19.5742 16.3906 20.5898 16.0391C21.6055 15.6875 22.7383 15.4531 23.9883 15.3359C25.2513 15.2188 26.4232 15.2448 27.5039 15.4141C28.5977 15.5703 29.1836 15.9089 29.2617 16.4297C29.3919 17.4062 29.4896 18.6497 29.5547 20.1602C29.6328 21.6576 29.6654 23.1354 29.6523 24.5938C29.6393 26.0521 29.5742 27.3411 29.457 28.4609C29.3529 29.5807 29.1901 30.2383 28.9688 30.4336C28.7604 30.707 27.7122 30.8698 25.8242 30.9219C23.9492 30.974 22.6146 30.8828 21.8203 30.6484C21.7031 30.6354 21.5859 30.5312 21.4688 30.3359C19.125 30.8958 16.8203 31.0977 14.5547 30.9414C10.5443 30.6289 7.1849 29.0599 4.47656 26.2344C1.76823 23.4089 0.641927 19.9193 1.09766 15.7656C1.60547 11.2344 3.2526 7.69922 6.03906 5.16016C8.83854 2.62109 12.3672 1.24089 16.625 1.01953C19.4375 0.889323 21.9896 1.46224 24.2812 2.73828C26.5859 4.01432 27.7643 6.31901 27.8164 9.65234C27.8685 10.1602 27.5495 10.5898 26.8594 10.9414C26.1693 11.2799 25.349 11.5534 24.3984 11.7617C23.4609 11.957 22.5299 12.0872 21.6055 12.1523C20.681 12.2174 20.0169 12.2174 19.6133 12.1523C19.0534 12.0742 18.7799 11.8529 18.793 11.4883C18.819 11.1237 18.6953 10.9219 18.4219 10.8828ZM50.082 11.625C51.3711 9.71094 52.6146 7.88151 53.8125 6.13672C55.0234 4.39193 56.0911 3.07682 57.0156 2.19141C57.4193 1.80078 58.207 1.51432 59.3789 1.33203C60.5508 1.14974 61.7682 1.0651 63.0312 1.07812C64.3073 1.09115 65.4596 1.1888 66.4883 1.37109C67.5299 1.55339 68.1289 1.80729 68.2852 2.13281C68.5326 2.70573 68.7279 4.39844 68.8711 7.21094C69.0143 10.0104 69.0859 13.0378 69.0859 16.293C69.0859 19.5482 69.0078 22.569 68.8516 25.3555C68.6953 28.1289 68.4414 29.7695 68.0898 30.2773C67.8164 30.5898 66.4883 30.7917 64.1055 30.8828C61.7227 30.9609 60.0495 30.9023 59.0859 30.707C58.6953 30.6289 58.3372 29.5026 58.0117 27.3281C57.6862 25.1536 57.4648 22.9531 57.3477 20.7266C57.0872 21 56.6185 21.4883 55.9414 22.1914C55.2773 22.8945 54.5612 23.6172 53.793 24.3594C53.0247 25.1016 52.2826 25.7591 51.5664 26.332C50.8633 26.9049 50.3424 27.1914 50.0039 27.1914C49.6654 27.1914 49.151 26.918 48.4609 26.3711C47.7839 25.8242 47.0742 25.1992 46.332 24.4961C45.6029 23.7799 44.9128 23.0833 44.2617 22.4062C43.6237 21.7292 43.181 21.2604 42.9336 21C42.7773 23.0833 42.543 25.1927 42.2305 27.3281C41.918 29.4635 41.5794 30.5898 41.2148 30.707C40.7331 30.8503 40.0169 30.9349 39.0664 30.9609C38.1159 30.987 37.1523 30.9805 36.1758 30.9414C35.1992 30.9023 34.3203 30.8242 33.5391 30.707C32.7708 30.5768 32.3346 30.4336 32.2305 30.2773C31.8789 29.7826 31.612 28.1159 31.4297 25.2773C31.2474 22.4388 31.1497 19.3789 31.1367 16.0977C31.1237 12.8034 31.1758 9.75651 31.293 6.95703C31.4102 4.14453 31.6055 2.52344 31.8789 2.09375C32.0742 1.78125 32.6927 1.53385 33.7344 1.35156C34.776 1.16927 35.9219 1.07812 37.1719 1.07812C38.4219 1.0651 39.6198 1.14974 40.7656 1.33203C41.9245 1.51432 42.7122 1.80078 43.1289 2.19141C44.0404 3.07682 45.1081 4.39193 46.332 6.13672C47.569 7.88151 48.819 9.71094 50.082 11.625ZM83.8711 30.0234C83.5977 30.5443 82.237 30.8568 79.7891 30.9609C77.3411 31.0521 75.6094 30.8828 74.5938 30.4531C74.138 30.2578 73.7083 28.9167 73.3047 26.4297C72.901 23.9427 72.556 21.1497 72.2695 18.0508C71.9831 14.9518 71.7747 11.9701 71.6445 9.10547C71.5143 6.22786 71.5078 4.30729 71.625 3.34375C71.7161 2.54948 72.4453 1.95052 73.8125 1.54688C75.1927 1.13021 76.6966 0.902344 78.3242 0.863281C79.9648 0.811198 81.4622 0.941406 82.8164 1.25391C84.1836 1.56641 84.9062 2.05469 84.9844 2.71875C85.1927 4.59375 85.3034 6.99609 85.3164 9.92578C85.3424 12.8555 85.2969 15.7461 85.1797 18.5977C85.0625 21.4492 84.8867 23.9688 84.6523 26.1562C84.418 28.3438 84.1576 29.6328 83.8711 30.0234ZM115.512 30.0234C115.355 30.3359 114.887 30.5638 114.105 30.707C113.324 30.8503 112.458 30.9349 111.508 30.9609C110.57 30.987 109.665 30.9609 108.793 30.8828C107.934 30.8047 107.348 30.694 107.035 30.5508C106.592 30.3555 105.948 29.8411 105.102 29.0078C104.255 28.1615 103.389 27.25 102.504 26.2734C101.618 25.2839 100.811 24.3529 100.082 23.4805C99.3529 22.6081 98.8906 22.0352 98.6953 21.7617C98.5 24.0794 98.2982 26.0716 98.0898 27.7383C97.8815 29.3919 97.6146 30.2969 97.2891 30.4531C96.3255 30.8958 94.6654 31.0651 92.3086 30.9609C89.9648 30.8568 88.6693 30.5443 88.4219 30.0234C88.1354 29.6328 87.888 28.3242 87.6797 26.0977C87.4844 23.8711 87.3477 21.3125 87.2695 18.4219C87.2044 15.5312 87.2109 12.6016 87.2891 9.63281C87.3672 6.66406 87.556 4.24219 87.8555 2.36719C87.9076 1.98958 88.3633 1.70312 89.2227 1.50781C90.0951 1.29948 91.0911 1.18229 92.2109 1.15625C93.3438 1.11719 94.4766 1.16276 95.6094 1.29297C96.7552 1.42318 97.6341 1.61849 98.2461 1.87891C99.1445 2.28255 100.264 3.35677 101.605 5.10156C102.96 6.84635 103.943 8.16797 104.555 9.06641C104.516 7.67318 104.47 6.44271 104.418 5.375C104.379 4.29427 104.385 3.5 104.438 2.99219C104.464 2.36719 105.062 1.89193 106.234 1.56641C107.406 1.24089 108.689 1.05859 110.082 1.01953C111.488 0.967448 112.777 1.05859 113.949 1.29297C115.134 1.52734 115.759 1.88542 115.824 2.36719C116.02 4.28125 116.137 6.72917 116.176 9.71094C116.228 12.6927 116.228 15.6289 116.176 18.5195C116.137 21.4102 116.052 23.9622 115.922 26.1758C115.792 28.3763 115.655 29.6589 115.512 30.0234ZM142.816 22.2109C141.371 25.6094 139.092 27.9401 135.98 29.2031C132.868 30.4531 129.594 31.0521 126.156 31C124.984 30.974 123.852 30.8958 122.758 30.7656C121.677 30.6224 120.896 30.4466 120.414 30.2383C119.659 29.9258 119.053 28.3763 118.598 25.5898C118.142 22.7904 117.868 19.7305 117.777 16.4102C117.686 13.0898 117.777 9.9974 118.051 7.13281C118.324 4.26823 118.832 2.60807 119.574 2.15234C120.316 1.68359 121.449 1.33854 122.973 1.11719C125.408 0.778646 128.038 0.811198 130.863 1.21484C133.702 1.61849 136.104 2.60156 138.07 4.16406C140.648 6.2474 142.406 9.01432 143.344 12.4648C144.294 15.9023 144.118 19.151 142.816 22.2109ZM128.051 13.4609C127.829 14.1771 127.777 15.2318 127.895 16.625C128.025 18.0052 128.318 18.819 128.773 19.0664C128.982 19.1966 129.398 19.2487 130.023 19.2227C131.039 19.1966 131.898 18.9688 132.602 18.5391C133.305 18.0964 133.695 17.4453 133.773 16.5859C133.865 15.5312 133.48 14.6328 132.621 13.8906C131.775 13.1484 130.883 12.7318 129.945 12.6406C129.568 12.6146 129.184 12.6471 128.793 12.7383C128.415 12.8164 128.168 13.0573 128.051 13.4609Z" fill="#3B3777"/>
</svg>
